<svg width="21" height="21" viewBox="0 0 21 21" fill="none" xmlns="http://www.w3.org/2000/svg">
<path d="M4.50026 1.50033V11.6255C4.50026 11.8327 4.33241 12.0006 4.12519 12.0006H0.375065C0.168365 12.0006 0 11.8327 0 11.6255V1.50033C0 1.2931 0.168365 1.12524 0.375065 1.12524H4.12519C4.33241 1.12524 4.50026 1.2931 4.50026 1.50033Z" fill="#DDDDDD"/>
<path d="M20.9996 10.1257C20.9996 10.1392 20.9996 10.1526 20.9991 10.1666C20.9773 10.7759 20.4583 11.2504 19.848 11.2504H15.0001C14.9426 11.2504 14.8851 11.2535 14.8281 11.2592C13.8946 11.3546 13.2149 12.1887 13.3103 13.1222C13.402 14.0273 13.4999 15.7053 13.4999 17.2507C13.5092 18.1061 13.4325 18.9604 13.2704 19.8007C13.2004 20.1302 13.0233 20.427 12.7658 20.6441C12.4835 20.8824 12.1131 20.999 11.7411 21C11.0531 21.0016 10.5004 20.4301 10.5004 19.7421V16.8756C10.5004 15.1194 9.16124 13.4092 8.03864 12.2845C7.37295 11.6177 6.46844 11.2452 5.52612 11.2504H5.25V1.8749H5.76079C6.42596 1.87593 7.08595 1.7604 7.71071 1.53349C9.2892 0.961021 12.3348 0 15.0001 0H17.9732C18.5829 0 19.1025 0.474553 19.1243 1.08432C19.1471 1.72414 18.6347 2.24998 18.0001 2.24998C17.7893 2.24998 17.6188 2.42457 17.6251 2.63646C17.6313 2.84214 17.8105 3.00015 18.0157 3.00015H19.0979C19.7081 3.00015 20.2277 3.4747 20.249 4.08395C20.2718 4.72429 19.7599 5.25013 19.1248 5.25013C18.914 5.25013 18.7435 5.4242 18.7503 5.63661C18.7565 5.84228 18.9352 6.0003 19.1409 6.0003H19.8749C20.1858 6.0003 20.4665 6.12619 20.6707 6.32979C20.8742 6.53339 21.0001 6.8147 21.0001 7.12555C21.0001 7.7405 20.5059 8.24095 19.8925 8.25028C19.6895 8.25339 19.5107 8.40311 19.5004 8.60567C19.4895 8.82171 19.6615 9.00044 19.8749 9.00044C20.4966 9.00044 20.9996 9.50401 20.9996 10.1257Z" fill="#DDDDDD"/>
</svg>

