<svg width="21" height="16" viewBox="0 0 21 16" fill="none" xmlns="http://www.w3.org/2000/svg">
<path d="M20.7901 2.16986C20.6029 1.47209 20.16 0.967399 19.5721 0.64188C19.006 0.328442 18.3724 0.163403 17.7419 0.0961567C15.9141 -0.0987444 13.9425 0.0628754 12.1023 0.0633313C9.12503 0.064471 6.12389 -0.0262548 3.14955 0.0927374C2.20424 0.220392 1.29544 0.461796 0.668119 1.31229C0.34528 1.74997 0.170356 2.28908 0.100935 2.83868C-0.112814 4.53329 0.0785684 6.42303 0.0836325 8.13657C0.0895407 10.0523 -0.127795 12.1645 0.134063 14.0424C0.213612 14.6123 0.411747 15.0253 0.840722 15.3807C1.20914 15.686 1.67567 15.8314 2.13208 15.8868C4.02311 16.117 6.11249 15.9249 8.02822 15.9246C11.3895 15.9244 14.7808 16.0256 18.1388 15.916C19.1387 15.6538 20.1106 15.3164 20.6512 14.2822C20.7812 14.0333 20.8359 13.7837 20.8633 13.504C21.0146 11.9555 21.1009 3.32901 20.7901 2.16986ZM1.74552 1.5847C2.07912 1.35401 2.41968 1.24915 2.79506 1.13016C5.83207 1.00683 8.91191 1.1101 11.9542 1.10668C13.9512 1.10463 16.0789 0.932066 18.0565 1.16321C18.5924 1.2259 18.9836 1.3939 19.4514 1.67474C18.0417 3.12339 16.3678 4.40678 14.8484 5.72732L10.5495 9.41334C8.46521 7.73833 6.44609 5.94889 4.4217 4.19022C3.54729 3.43067 2.42495 2.64446 1.6858 1.74244L1.74552 1.5847ZM1.01881 2.64195C2.12934 3.09968 5.66685 6.57759 6.8546 7.58355L3.96825 10.751C2.98475 11.8249 1.99366 12.8903 0.994545 13.9476C0.989692 10.1847 0.918794 6.40229 1.01881 2.64195ZM15.6776 14.9529C11.0108 14.9656 6.2199 15.1886 1.56954 14.8102C3.46015 12.5438 5.57738 10.4555 7.53889 8.25419C8.14617 8.419 9.90237 10.1444 10.5892 10.6381C11.472 10.0104 12.2996 9.22573 13.1331 8.52044C15.2398 10.4535 17.3811 12.361 19.4198 14.3773C18.1989 15.1006 17.0299 14.9743 15.6776 14.9529ZM20.0437 5.87252C20.0591 8.41649 20.0682 10.9555 19.9754 13.4978L16.8586 10.6534C15.8373 9.74866 14.8749 8.77073 13.8408 7.88262C15.9122 6.15678 17.9274 4.34568 19.9614 2.56855C20.1305 3.59754 20.0374 4.82188 20.0437 5.87252Z" fill="#3835FF"/>
</svg>
