<svg width="39" height="39" viewBox="0 0 39 39" fill="none" xmlns="http://www.w3.org/2000/svg">
<g clip-path="url(#clip0_374_7498)">
<path d="M20.0532 0H18.9468C8.48319 0 0 8.48319 0 18.9468V20.0532C0 30.5168 8.48319 39 18.9468 39H20.0532C30.5168 39 39 30.5168 39 20.0532V18.9468C39 8.48319 30.5168 0 20.0532 0ZM26.9819 10.3226H23.2617C22.4568 10.3226 21.804 10.9753 21.804 11.7802V15.8379H26.9819L26.1687 21.0379H21.8068V34.1043H16.38V21.0379H12.0181V15.8379H16.38V11.7802C16.38 7.98532 19.4668 4.89574 23.2645 4.89574H26.9847V10.3226H26.9819Z" fill="#3835FF"/>
</g>
<defs>
<clipPath id="clip0_374_7498">
<rect width="39" height="39" fill="white"/>
</clipPath>
</defs>
</svg>


