<svg width="50" height="50" viewBox="0 0 50 50" fill="none" xmlns="http://www.w3.org/2000/svg">
<g clip-path="url(#clip0_5_163)">
<path d="M25.7092 0H24.2908C10.8723 0 0 10.879 0 24.2977V25.7165C0 38.9543 10.5851 49.7127 23.7518 50V49.9681C24.1667 49.9894 24.5816 50 25 50C27.3404 50 29.6064 49.6772 31.7518 49.0778V49.2551C42.2411 46.5664 50 37.0495 50 25.7165V24.2977C50 10.879 39.1241 0 25.7092 0ZM36.6277 38.369H29.2482V28.4939H20.7518V38.369H13.3723V20.403L25 11.6274L36.6277 20.403V38.369Z" fill="#D4D4D4"/>
</g>
<defs>
<clipPath id="clip0_5_163">
<rect width="50" height="50" fill="white"/>
</clipPath>
</defs>
</svg>
