<svg width="20" height="20" viewBox="0 0 20 20" fill="none" xmlns="http://www.w3.org/2000/svg">
<g clip-path="url(#clip0_329_11507)">
<path d="M10 1.19801C10 0.542757 10.5269 -0.00147723 11.1822 3.01242e-06C11.5364 0.000989838 11.8887 0.112008 12.1576 0.338978C12.4028 0.545718 12.5715 0.828443 12.6381 1.14225C12.7926 1.94257 12.8661 2.75621 12.8572 3.57083C12.8572 5.04219 12.7635 6.64085 12.6766 7.50284C12.5858 8.39197 13.2332 9.18637 14.1223 9.27715C14.1765 9.28258 14.2313 9.28554 14.2861 9.28554H18.9032C19.4844 9.28554 19.9788 9.73751 19.9995 10.3178C20.0212 10.9271 19.5333 11.4284 18.9289 11.4284C18.7256 11.4284 18.5618 11.5987 18.5721 11.8044C18.582 11.9978 18.7522 12.1399 18.9456 12.1429C19.5298 12.1518 20 12.6279 20 13.2141C20 13.8003 19.5204 14.2858 18.9284 14.2858H18.2292C18.0338 14.2858 17.8631 14.4363 17.8572 14.6322C17.8513 14.828 18.0131 15.0003 18.2144 15.0003C18.8193 15.0003 19.3068 15.5011 19.2851 16.1109C19.2634 16.7208 18.7695 17.1431 18.1888 17.1431H17.1581C16.9627 17.1431 16.792 17.2936 16.7861 17.4895C16.7801 17.6854 16.942 17.8576 17.1433 17.8576C17.7482 17.8576 18.2356 18.3584 18.2139 18.9683C18.1922 19.5781 17.6983 20.0005 17.1176 20.0005H14.2861C11.7481 20.0005 8.84695 19.0852 7.34409 18.54C6.74857 18.3239 6.11999 18.2138 5.48697 18.2148H5.00049V9.28554H5.26347C6.16045 9.29048 7.0224 8.93571 7.6564 8.30069C8.72558 7.229 10.0005 5.60073 10.0005 3.92806V1.19801H10ZM0 8.92831C0 8.73094 0.159858 8.57108 0.357213 8.57108H3.92885C4.12621 8.57108 4.28607 8.73094 4.28607 8.92831V18.5716C4.28607 18.7689 4.12621 18.9288 3.92885 18.9288H0.357213C0.159858 18.9288 0 18.7689 0 18.5716V8.92831Z" fill="#3835FF"/>
</g>
<defs>
<clipPath id="clip0_329_11507">
<rect width="20" height="20" fill="white"/>
</clipPath>
</defs>
</svg>
