<svg width="15" height="22" viewBox="0 0 15 22" fill="none" xmlns="http://www.w3.org/2000/svg">
<g clip-path="url(#clip0_329_22135)">
<path d="M14.9708 6.37078C14.8028 4.55466 13.8838 3.0136 12.5095 1.86297C11.0753 0.661965 9.34873 0.0322418 7.49267 0C5.2187 0.129219 3.17853 0.902267 1.63554 2.66675C0.42277 4.05365 -0.102491 5.7272 0.0157799 7.56927C0.068952 8.39899 0.323383 9.13325 0.64664 9.89194C1.2929 11.4091 6.38277 20.9982 7.10233 21.7421C7.25464 21.8997 7.47106 21.9481 7.67331 22C9.06895 20.3015 13.9799 11.0635 14.661 9.02645C14.733 8.81385 14.7939 8.59798 14.8433 8.37884C14.8928 8.1597 14.9306 7.93854 14.9564 7.71562C14.9825 7.49219 14.9966 7.26826 14.9991 7.04332C15.0014 6.81864 14.9922 6.59446 14.9708 6.37078ZM13.6482 8.31814C13.0156 10.7035 9.08262 17.3698 7.66735 19.7524L7.51951 19.8683L7.30607 19.7469C6.3455 18.2917 5.57276 16.6317 4.73095 15.0995C3.72317 13.266 2.56928 11.4398 1.74213 9.51713C1.50584 8.96751 1.32173 8.39043 1.23725 7.79572C1.03276 6.35189 1.43354 4.91965 2.29448 3.75919C3.4998 2.13426 5.21447 1.43854 7.14233 1.15264C8.39213 1.0597 9.74404 1.43753 10.8182 2.07834C12.1659 2.88262 13.2792 4.24282 13.6544 5.79723C13.8492 6.60453 13.8619 7.51259 13.6482 8.31814Z" fill="#3835FF"/>
<path d="M12.7276 6.52038C12.5663 5.25665 11.8505 4.10375 10.8591 3.33448C9.86673 2.56421 8.52376 2.13398 7.27347 2.20829C5.6306 2.40325 4.23397 2.93776 3.18643 4.30123C2.44674 5.2637 2.08323 6.46043 2.24821 7.67554C2.42686 8.99317 3.18171 10.2007 4.23471 10.9836C5.14609 11.6614 6.5636 12.1572 7.6991 12.0695C9.29451 11.8481 10.7331 11.2942 11.7476 9.9637C12.4853 8.9962 12.8841 7.7428 12.7276 6.52038ZM10.9026 9.08965C10.0896 10.2597 8.9956 10.698 7.65189 10.9347C6.71616 10.8551 5.82988 10.6357 5.04571 10.0912C4.19496 9.50023 3.56136 8.58159 3.40806 7.53751C3.2796 6.66068 3.53354 5.79091 4.05557 5.08965C4.86035 4.00929 6.05051 3.55262 7.33311 3.37353C8.21094 3.34531 9.14866 3.60375 9.88735 4.09015C10.7254 4.64204 11.3282 5.50829 11.5069 6.51055C11.6701 7.42894 11.4261 8.33574 10.9026 9.08965Z" fill="#3835FF"/>
</g>
<defs>
<clipPath id="clip0_329_22135">
<rect width="15" height="22" fill="white"/>
</clipPath>
</defs>
</svg>
