<svg width="17" height="17" viewBox="0 0 17 17" fill="none" xmlns="http://www.w3.org/2000/svg">
<path d="M17.0001 16.1113C17.0001 16.3378 16.9142 16.5662 16.7406 16.7397C16.3933 17.0868 15.8303 17.0868 15.483 16.7397L11.489 12.7479C12.0118 12.3935 12.7027 11.5458 12.7466 11.4928H12.7484L16.7406 15.481C16.9142 15.6545 17.0001 15.8829 17.0001 16.1113Z" fill="white"/>
<path d="M12.6971 5.79829C12.4503 2.86426 10.1106 0.419834 7.18961 0.0526225C3.11338 -0.46257 -0.323081 2.87705 0.0242214 6.92003C0.265505 9.72435 2.40415 12.0994 5.17343 12.6109C7.04886 12.958 8.83107 12.4593 10.1801 11.4398C10.7028 11.0854 11.3938 10.2377 11.4377 10.1847H11.4395C12.3516 8.97714 12.836 7.45166 12.6971 5.79829ZM10.3062 9.05022C9.96803 9.54714 9.54395 9.97099 9.04859 10.309C7.99937 11.0215 6.63941 11.3339 5.21182 10.9995C3.46251 10.5885 2.06416 9.15983 1.69127 7.40416C0.989355 4.09195 3.71476 1.20358 6.98671 1.6183C9.09611 1.88685 10.8217 3.60416 11.0977 5.7106C11.2604 6.95291 10.946 8.11666 10.3062 9.05022Z" fill="white"/>
</svg>
