<svg width="17" height="17" viewBox="0 0 17 17" fill="none" xmlns="http://www.w3.org/2000/svg">
<path d="M16.7925 15.9145C16.7925 16.1383 16.7076 16.3638 16.5361 16.5353C16.193 16.8782 15.6369 16.8782 15.2938 16.5353L11.3486 12.5922C11.865 12.2421 12.5475 11.4048 12.5909 11.3524H12.5927L16.5361 15.2919C16.7076 15.4633 16.7925 15.6889 16.7925 15.9145Z" fill="#3835FF"/>
<path d="M12.5421 5.72751C12.2983 2.82929 9.98718 0.414709 7.10184 0.0519801C3.07537 -0.456923 -0.319137 2.84192 0.0239257 6.83555C0.262264 9.60564 2.37481 11.9516 5.11028 12.4569C6.96281 12.7998 8.72326 12.3072 10.0558 11.3002C10.5722 10.9501 11.2547 10.1127 11.298 10.0604H11.2998C12.2008 8.86755 12.6793 7.36069 12.5421 5.72751ZM10.1804 8.93974C9.84634 9.43059 9.42744 9.84927 8.93813 10.1831C7.90172 10.8869 6.55836 11.1955 5.14819 10.8653C3.42024 10.4592 2.03896 9.04801 1.67062 7.31377C0.977278 4.042 3.66941 1.18889 6.90142 1.59854C8.98507 1.86382 10.6896 3.56016 10.9622 5.64089C11.1229 6.86803 10.8123 8.01758 10.1804 8.93974Z" fill="#3835FF"/>
</svg>
