<svg width="17" height="18" viewBox="0 0 17 18" fill="none" xmlns="http://www.w3.org/2000/svg">
<g clip-path="url(#clip0_329_22133)">
<path d="M16.9978 15.0427C16.9461 14.1506 14.3146 11.8412 13.5225 11.2432C13.2395 11.0294 12.7865 10.6855 12.4088 10.7402C11.211 10.9143 10.7363 13.23 9.18428 12.2822C7.89626 11.4957 5.55125 8.83514 5.30669 7.45723C5.24882 7.13018 5.29199 6.81693 5.50595 6.54554C5.88714 6.06197 7.07862 5.77365 6.94341 5.05542C6.81532 4.37616 4.56733 0.531213 3.99305 0.0814852C3.8486 0.0469765 3.71624 0.00846022 3.56727 0C1.94645 0.950438 0.645619 2.02221 0.181172 3.83782C-0.418245 6.17974 0.557616 8.76167 1.87505 10.7336C3.80685 13.6252 7.39339 17.0607 11.0122 17.8366C12.5274 18.1614 14.1668 18.0229 15.4987 17.231C15.687 17.119 15.8775 17.0037 16.0523 16.8735C16.5493 16.3701 17.0403 15.7718 16.9978 15.0427ZM15.7074 15.7618C15.5853 15.8769 15.4617 15.9905 15.3305 16.0965C14.4422 16.8145 13.1563 17.0629 12.0127 16.9663C9.0773 16.7189 6.22302 14.2479 4.38302 12.2063C2.59805 10.2251 0.72864 7.44076 1.0019 4.7444C1.16628 3.12649 2.22588 2.11016 3.50346 1.12966C4.38515 2.02578 5.20636 3.94669 5.82641 5.07791C5.56572 5.19591 5.30266 5.31569 5.06902 5.47799C4.59864 5.8046 4.35527 6.29774 4.29264 6.83741C4.11308 8.38207 5.42625 10.0447 6.41729 11.1604C7.14574 11.9801 8.64583 13.5504 9.89139 13.5947C10.8336 13.6281 11.9764 12.3386 12.6017 11.7826C13.5934 12.5828 15.0141 13.8068 15.6721 14.8512C15.8834 15.187 15.8172 15.3998 15.7074 15.7618Z" fill="#3835FF"/>
</g>
<defs>
<clipPath id="clip0_329_22133">
<rect width="17" height="18" fill="white"/>
</clipPath>
</defs>
</svg>
