<svg width="21" height="21" viewBox="0 0 21 21" fill="none" xmlns="http://www.w3.org/2000/svg">
<path d="M21 19.9021C21 20.182 20.8939 20.4641 20.6794 20.6784C20.2503 21.1072 19.5549 21.1072 19.1259 20.6784L14.1921 15.7474C14.8379 15.3096 15.6915 14.2624 15.7456 14.197H15.7479L20.6794 19.1235C20.8939 19.3379 21 19.62 21 19.9021Z" fill="#BCBCBC"/>
<path d="M15.6846 7.16259C15.3798 3.5382 12.4896 0.518618 8.88127 0.0650042C3.84594 -0.571409 -0.399099 3.55399 0.0299205 8.54826C0.327976 12.0124 2.96983 14.9462 6.3907 15.5781C8.70741 16.0069 10.909 15.3908 12.5754 14.1315C13.2211 13.6937 14.0747 12.6466 14.1289 12.5811H14.1311C15.2579 11.0894 15.8562 9.20498 15.6846 7.16259ZM12.7312 11.1797C12.3134 11.7935 11.7896 12.3171 11.1777 12.7346C9.88157 13.6147 8.20162 14.0007 6.43812 13.5877C4.27722 13.0799 2.54985 11.3151 2.08921 9.14631C1.22214 5.05476 4.58882 1.48678 8.63064 1.99907C11.2364 2.33082 13.3679 4.45219 13.7089 7.05427C13.9098 8.58888 13.5215 10.0265 12.7312 11.1797Z" fill="#BCBCBC"/>
</svg>

