<svg width="22" height="23" viewBox="0 0 22 23" fill="none" xmlns="http://www.w3.org/2000/svg">
<g clip-path="url(#clip0_101_15009)">
<path d="M11.3121 0H10.6879C4.78539 0 0 5.00291 0 11.1738V11.8262C0 17.9971 4.78539 23 10.6879 23H11.3121C17.2146 23 22 17.9971 22 11.8262V11.1738C22 5.00291 17.2146 0 11.3121 0ZM15.2206 6.08766H13.122C12.6679 6.08766 12.2997 6.47262 12.2997 6.94731V9.34028H15.2206L14.7618 12.4069H12.3013V20.1128H9.24V12.4069H6.77943V9.34028H9.24V6.94731C9.24 4.70929 10.9813 2.88723 13.1235 2.88723H15.2221V6.08766H15.2206Z" fill="#D4D4D4"/>
</g>
<defs>
<clipPath id="clip0_101_15009">
<rect width="22" height="23" fill="white"/>
</clipPath>
</defs>
</svg>
