<svg width="24" height="23" viewBox="0 0 24 23" fill="none" xmlns="http://www.w3.org/2000/svg">
<circle cx="11.943" cy="11.5" r="11.5" fill="#D9D9D9"/>
<g clip-path="url(#clip0_273_183)">
<path d="M7.37289 5.47223C7.65047 5.44732 7.91616 5.41412 8.18344 5.52342C8.49245 5.64961 8.74308 5.91415 8.86854 6.23432C8.98976 6.54397 9.00772 6.9134 8.87303 7.22194C8.72011 7.57255 8.4832 7.74578 8.14594 7.8703C7.8916 7.88635 7.62353 7.91292 7.37421 7.8454C7.06705 7.76238 6.78419 7.53381 6.63312 7.24131C6.48205 6.94882 6.45115 6.5805 6.56128 6.26753C6.70786 5.85051 7.00393 5.65182 7.37289 5.47223Z" fill="white"/>
<path d="M6.58011 8.56081C7.35685 8.55223 8.13254 8.56358 8.90928 8.57935L8.93966 16.9361L6.5603 16.9344L6.58037 8.56081H6.58011Z" fill="white"/>
<path d="M14.716 8.4722C15.4526 8.49046 16.1103 8.61084 16.6469 9.19666C16.9863 9.56719 17.191 10.0357 17.2914 10.5346C17.4527 11.3374 17.3687 12.2622 17.3661 13.0846L17.3624 16.9415L14.9318 16.9391C14.9236 15.8327 14.9405 14.7247 14.9453 13.6181C14.9477 13.0384 15.011 12.3624 14.8946 11.7967C14.8169 11.419 14.6418 11.0496 14.3154 10.8456C14.0452 10.6768 13.7312 10.6691 13.4322 10.746C13.0149 10.8531 12.8044 11.0825 12.5952 11.4627C12.3343 12.3372 12.4915 15.7663 12.4899 16.9476L10.1665 16.9429L10.1705 8.63989L12.0081 8.62689C12.1167 9.00157 12.1917 9.39341 12.2791 9.77445C12.9985 8.98441 13.6543 8.56158 14.7163 8.47192L14.716 8.4722Z" fill="white"/>
</g>
<defs>
<clipPath id="clip0_273_183">
<rect width="10.8947" height="11.5" fill="white" transform="translate(6.49561 5.44739)"/>
</clipPath>
</defs>
</svg>
