<svg width="13" height="13" viewBox="0 0 13 13" fill="none" xmlns="http://www.w3.org/2000/svg">
<g clip-path="url(#clip0_329_11499)">
<path d="M12.489 3.96973C12.1616 3.1957 11.6929 2.50059 11.0963 1.90381C10.4995 1.30704 9.8044 0.838488 9.03036 0.511108C8.22864 0.172022 7.37734 0 6.5 0C5.62266 0 4.7715 0.172022 3.96977 0.511108C3.19573 0.838488 2.50061 1.30704 1.90383 1.90381C1.30705 2.50059 0.838496 3.1957 0.510976 3.96973C0.171886 4.77145 0 5.62274 0 6.50007C0 7.3774 0.171886 8.22855 0.510976 9.03027C0.838496 9.8043 1.30705 10.4994 1.90383 11.0962C2.50061 11.693 3.19573 12.1615 3.96977 12.4889C4.7715 12.8281 5.6228 13 6.5 13C7.3772 13 8.22864 12.8281 9.03036 12.4889C9.8044 12.1615 10.4995 11.693 11.0963 11.0962C11.6929 10.4994 12.1616 9.80444 12.489 9.03027C12.8281 8.22855 13 7.37726 13 6.50007C13 5.62288 12.8281 4.77145 12.489 3.96973ZM11.4452 8.58871C11.1749 9.22777 10.7879 9.80168 10.2949 10.2947C9.80179 10.7878 9.22773 11.1748 8.5888 11.4451C7.92756 11.7248 7.22473 11.8666 6.5 11.8666C5.77527 11.8666 5.07257 11.7248 4.4112 11.4451C3.77227 11.1748 3.19835 10.7878 2.70528 10.2947C2.21221 9.80168 1.82519 9.22777 1.55483 8.58871C1.27524 7.92748 1.13338 7.22479 1.13338 6.50007C1.13338 5.77534 1.27524 5.07252 1.55483 4.41129C1.82519 3.77223 2.21221 3.19832 2.70528 2.70525C3.19835 2.21219 3.77227 1.82517 4.4112 1.55495C5.07257 1.27522 5.77527 1.13336 6.5 1.13336C7.22473 1.13336 7.92756 1.27522 8.5888 1.55495C9.22773 1.82517 9.80179 2.21219 10.2949 2.70525C10.7879 3.19832 11.1749 3.77223 11.4452 4.41129C11.7249 5.07252 11.8666 5.77521 11.8666 6.50007C11.8666 7.22493 11.7249 7.92748 11.4452 8.58871Z" fill="#3835FF"/>
<path d="M8.98089 7.65646C8.92287 7.85871 8.74027 8 8.53648 8C8.49199 8 8.44772 7.99336 8.4048 7.98018L6.14347 7.28716C5.987 7.23925 5.86522 7.10775 5.82546 6.94397L5.01415 3.59658C4.98396 3.47231 5.00244 3.34326 5.06608 3.23345C5.12962 3.12352 5.23078 3.04577 5.35086 3.01465C5.47095 2.9834 5.59554 3.00252 5.70177 3.06839C5.808 3.13425 5.88313 3.23893 5.91321 3.3632L6.6603 6.44503L8.66806 7.06042C8.91307 7.1355 9.05343 7.40291 8.98089 7.65646Z" fill="#3835FF"/>
</g>
<defs>
<clipPath id="clip0_329_11499">
<rect width="13" height="13" fill="white"/>
</clipPath>
</defs>
</svg>
