<svg width="22" height="14" viewBox="0 0 22 14" fill="none" xmlns="http://www.w3.org/2000/svg">
<g clip-path="url(#clip0_329_11529)">
<mask id="mask0_329_11529" style="mask-type:luminance" maskUnits="userSpaceOnUse" x="0" y="0" width="22" height="14">
<path d="M22 0H0V14H22V0Z" fill="white"/>
</mask>
<g mask="url(#mask0_329_11529)">
<path d="M10.6309 0.0214238C14.847 -0.275917 18.2882 3.02814 21.0177 5.87785L21.5394 6.43328C21.6332 6.532 22.0131 6.86027 21.9978 7.01369C21.9767 7.23373 20.0621 9.10935 19.7889 9.37696C17.5038 11.6118 14.6243 13.8835 11.3285 13.9822C7.96822 14.1963 4.91514 12.0114 2.59015 9.78253C2.07662 9.29014 0.234685 7.48825 0.00488281 7.00061C0.137371 6.67235 0.640355 6.24774 0.886571 5.99203C3.53281 3.24579 6.66444 0.270001 10.6309 0.0214238ZM10.8888 0.450784C7.36675 0.547123 4.33008 3.1435 1.95937 5.54483C1.48218 6.02771 0.973333 6.49394 0.537179 7.01845C3.39329 10.0608 6.69727 13.5825 11.1608 13.554C15.2761 13.4458 18.7478 9.91574 21.4104 7.07792C21.4327 7.05413 21.4527 7.02916 21.4738 7.00299C18.8252 4.24129 15.0886 0.221237 10.8888 0.450784Z" fill="#A2A2A2"/>
</g>
<path d="M10.8207 2.19676H10.843C13.4236 2.06355 15.7005 4.20203 15.8213 6.82933C15.9456 9.52681 13.8269 11.7795 11.1924 11.8996C8.61066 11.9757 6.42168 10.0466 6.19305 7.41688C5.94566 4.57311 8.1194 2.42155 10.8196 2.19676H10.8207ZM10.8524 2.64396C8.34333 2.8069 6.46975 4.81574 6.64444 7.3919C6.80507 9.75992 8.82522 11.4904 11.135 11.4631C13.4951 11.4238 15.4355 9.29845 15.398 6.92924C15.3605 4.54694 13.202 2.50124 10.8524 2.64396Z" fill="#A2A2A2"/>
</g>
<defs>
<clipPath id="clip0_329_11529">
<rect width="22" height="14" fill="white"/>
</clipPath>
</defs>
</svg>
