<svg width="297" height="44" viewBox="0 0 297 44" fill="none" xmlns="http://www.w3.org/2000/svg">
<g clip-path="url(#clip0_328_11321)">
<path d="M175.099 29.5906V13.1821H178.333V29.5906C178.333 30.5099 177.61 31.2462 176.716 31.2462C176.269 31.2462 175.866 31.0543 175.572 30.7643C175.283 30.4608 175.099 30.0547 175.099 29.5906Z" fill="#3835FF"/>
<path d="M67.7751 13.1866V23.3566C67.7751 24.4186 67.534 25.3379 67.0607 26.1099C66.5829 26.8819 65.9561 27.4754 65.1803 27.8949C64.4045 28.3054 63.563 28.5196 62.6601 28.5196C61.7572 28.5196 60.9507 28.3099 60.1749 27.8949C59.3947 27.4799 58.7767 26.8819 58.3165 26.1099C57.8475 25.3379 57.6196 24.4231 57.6196 23.3566V13.1866H54.3849V23.3923C54.3849 24.9631 54.7355 26.3375 55.4456 27.5111C56.1556 28.6892 57.1374 29.604 58.4041 30.2645C59.6665 30.9205 61.0997 31.2507 62.6995 31.2507C64.2994 31.2507 65.7282 30.9205 66.9774 30.2645C68.2309 29.6085 69.2128 28.6937 69.9316 27.5111C70.6504 26.3375 71.0098 24.9675 71.0098 23.3923V13.1866H67.7751Z" fill="#3835FF"/>
<path d="M91.5795 16.9217C90.8695 15.748 89.8964 14.8243 88.6604 14.1683C87.4156 13.5123 85.9868 13.1866 84.3607 13.1866C82.7345 13.1866 81.3407 13.5123 80.0872 14.1683C78.8336 14.8243 77.8562 15.7436 77.1461 16.9217C76.4361 18.0998 76.0854 19.4742 76.0854 21.0405V29.6174C76.0854 30.5188 76.7999 31.2462 77.6853 31.2462C78.5706 31.2462 79.2851 30.5188 79.2851 29.6174V21.0718C79.2851 20.0142 79.5218 19.0949 79.9995 18.3184C80.4729 17.5464 81.0997 16.9529 81.8755 16.5379C82.6556 16.1229 83.484 15.9132 84.3607 15.9132C85.2373 15.9132 86.07 16.1184 86.8502 16.5379C87.626 16.9485 88.2528 17.5464 88.7262 18.3184C89.2039 19.0949 89.4406 20.0097 89.4406 21.0718V29.6174C89.4406 30.5188 90.1551 31.2462 91.0404 31.2462C91.9258 31.2462 92.6402 30.5188 92.6402 29.6174V21.0405C92.6402 19.4742 92.2896 18.0998 91.5795 16.9217Z" fill="#3835FF"/>
<path d="M100.867 6.57767C100.438 6.14481 99.9336 5.92615 99.3551 5.92615C98.7765 5.92615 98.2725 6.14481 97.8429 6.57767C97.4134 7.01499 97.203 7.52818 97.203 8.11722C97.203 8.70627 97.4134 9.21945 97.8429 9.66124C98.2725 10.0941 98.7765 10.3128 99.3551 10.3128C99.9336 10.3128 100.438 10.0941 100.867 9.66124C101.297 9.21945 101.512 8.71073 101.512 8.11722C101.512 7.52371 101.297 7.01499 100.867 6.57767Z" fill="#3835FF"/>
<path d="M97.7201 29.5906V13.1821H100.955V29.5906C100.955 30.5099 100.232 31.2462 99.3374 31.2462C98.8904 31.2462 98.4871 31.0543 98.1935 30.7643C97.9042 30.4608 97.7201 30.0547 97.7201 29.5906Z" fill="#3835FF"/>
<path d="M140.227 17.5241C139.627 16.1988 138.715 15.1456 137.496 14.3602C136.282 13.5793 134.753 13.1866 132.925 13.1866C131.233 13.1866 129.747 13.5882 128.472 14.3959C127.201 15.2081 126.201 16.3059 125.482 17.7026C124.759 19.0994 124.404 20.6702 124.404 22.4239C124.404 24.1777 124.829 25.7529 125.671 27.0783C126.521 28.4036 127.696 29.4255 129.204 30.1574C130.711 30.8848 132.438 31.2462 134.384 31.2462H137.602C138.342 31.2462 138.943 30.6349 138.943 29.8807C138.943 29.1265 138.342 28.5152 137.602 28.5152H134.319C133.183 28.5152 132.145 28.3233 131.207 27.944C130.269 27.5647 129.497 26.9979 128.892 26.2482C128.292 25.4986 127.928 24.5837 127.814 23.4949H141.033C141.082 23.2896 141.112 23.0487 141.121 22.772C141.13 22.4953 141.139 22.232 141.139 21.9777C141.139 20.3399 140.836 18.8584 140.231 17.5286L140.227 17.5241ZM127.775 21.2458C127.823 20.6032 127.963 19.9562 128.196 19.3091C128.428 18.6665 128.765 18.0819 129.204 17.5643C129.642 17.0422 130.172 16.6272 130.786 16.3192C131.404 16.0069 132.114 15.8507 132.925 15.8507C133.692 15.8507 134.358 15.9667 134.924 16.1988C135.493 16.4308 135.971 16.7298 136.348 17.1136C136.734 17.4929 137.036 17.9213 137.273 18.3943C137.505 18.8673 137.663 19.3537 137.759 19.8491C137.851 20.3489 137.895 20.813 137.895 21.2503H127.775V21.2458Z" fill="#3835FF"/>
<path d="M178.232 6.57767C177.803 6.14481 177.299 5.92615 176.72 5.92615C176.142 5.92615 175.638 6.14481 175.208 6.57767C174.779 7.01499 174.568 7.52818 174.568 8.11722C174.568 8.70627 174.779 9.21945 175.208 9.66124C175.638 10.0941 176.142 10.3128 176.72 10.3128C177.299 10.3128 177.803 10.0941 178.232 9.66124C178.662 9.21945 178.872 8.71073 178.872 8.11722C178.872 7.52371 178.662 7.01499 178.232 6.57767Z" fill="#3835FF"/>
<path d="M211.815 17.5241C211.206 16.1988 210.303 15.1456 209.085 14.3602C207.866 13.5793 206.341 13.1866 204.513 13.1866C202.821 13.1866 201.331 13.5882 200.06 14.3959C198.785 15.2081 197.785 16.3059 197.066 17.7026C196.348 19.0994 195.993 20.6702 195.993 22.4239C195.993 24.1777 196.413 25.7529 197.259 27.0783C198.11 28.4036 199.284 29.4255 200.792 30.1574C202.295 30.8848 204.027 31.2462 205.973 31.2462H209.19C209.931 31.2462 210.531 30.6349 210.531 29.8807C210.531 29.1265 209.931 28.5152 209.19 28.5152H205.907C204.767 28.5152 203.729 28.3233 202.795 27.944C201.857 27.5647 201.086 26.9979 200.481 26.2482C199.872 25.4986 199.517 24.5837 199.403 23.4949H212.622C212.666 23.2896 212.692 23.0487 212.71 22.772C212.718 22.4953 212.723 22.232 212.723 21.9777C212.723 20.3399 212.425 18.8584 211.82 17.5286L211.815 17.5241ZM199.363 21.2458C199.407 20.6032 199.547 19.9562 199.78 19.3091C200.012 18.6665 200.349 18.0819 200.792 17.5643C201.23 17.0422 201.756 16.6272 202.374 16.3192C202.988 16.0069 203.698 15.8507 204.513 15.8507C205.28 15.8507 205.946 15.9667 206.512 16.1988C207.082 16.4308 207.555 16.7298 207.936 17.1136C208.318 17.4929 208.625 17.9213 208.857 18.3943C209.089 18.8673 209.251 19.3537 209.343 19.8491C209.435 20.3489 209.484 20.813 209.484 21.2503H199.363V21.2458Z" fill="#3835FF"/>
<path d="M246.687 17.6892C245.959 16.3014 244.921 15.2081 243.575 14.3959C242.229 13.5882 240.621 13.1866 238.74 13.1866C236.86 13.1866 235.12 13.5971 233.735 14.4138C232.341 15.2349 231.276 16.346 230.531 17.7383C229.79 19.1351 229.418 20.7014 229.418 22.4328C229.418 24.1643 229.751 25.6994 230.426 27.105C231.096 28.5152 232.061 29.6263 233.314 30.4474C234.568 31.2641 236.049 31.6746 237.767 31.6746C238.946 31.6746 239.981 31.4783 240.862 31.0856C241.743 30.6929 242.479 30.1931 243.075 29.5817C243.663 28.9704 244.132 28.3278 244.482 27.6629H244.548V30.0235C244.548 30.9338 245.271 31.6746 246.165 31.6746C246.612 31.6746 247.02 31.4917 247.314 31.1882C247.607 30.8937 247.787 30.4787 247.787 30.0235V22.3257C247.787 20.6166 247.419 19.0726 246.687 17.6892ZM243.768 25.7351C243.273 26.7391 242.571 27.5245 241.682 28.0912C240.787 28.658 239.762 28.9436 238.6 28.9436C237.347 28.9436 236.282 28.6535 235.401 28.0734C234.52 27.4977 233.849 26.7213 233.384 25.7351C232.92 24.7578 232.687 23.6645 232.687 22.4641C232.687 21.2637 232.924 20.1034 233.402 19.1217C233.88 18.1444 234.563 17.3679 235.453 16.7833C236.347 16.2077 237.421 15.9221 238.675 15.9221C239.854 15.9221 240.884 16.2032 241.769 16.77C242.65 17.3367 243.325 18.1042 243.803 19.0726C244.276 20.0409 244.513 21.1343 244.513 22.3614C244.513 23.5886 244.263 24.7355 243.768 25.7351Z" fill="#3835FF"/>
<path d="M273.888 27.6183C273.441 27.1631 272.902 26.931 272.275 26.931C271.648 26.931 271.109 27.1631 270.658 27.6183C270.206 28.0779 269.979 28.6312 269.979 29.2649C269.979 29.8986 270.206 30.4519 270.658 30.9116C271.109 31.3712 271.653 31.5988 272.275 31.5988C272.714 31.5988 273.108 31.4961 273.454 31.2819C273.801 31.0722 274.077 30.7866 274.274 30.4341C274.471 30.0815 274.568 29.6933 274.568 29.2649C274.568 28.6268 274.34 28.0779 273.888 27.6183Z" fill="#3835FF"/>
<path d="M278.429 8.64825V29.613C278.429 30.5144 279.144 31.2418 280.029 31.2418C280.914 31.2418 281.629 30.5144 281.629 29.613V8.64825H278.429Z" fill="#3835FF"/>
<path d="M122.853 13.1821L121.612 16.4174L121.573 16.5111L120.924 18.2381L117.036 28.6535C116.734 29.4835 116.265 30.1217 115.625 30.5724C114.989 31.0231 114.275 31.2462 113.486 31.2462C112.697 31.2462 111.983 31.0276 111.347 30.5724C110.707 30.1217 110.238 29.4835 109.936 28.6535L106.048 18.2381L105.399 16.5111L105.36 16.4174L104.119 13.1821H107.661L112.824 27.4754C112.921 27.7075 113.021 27.8681 113.135 27.9574C113.241 28.0422 113.363 28.0913 113.486 28.0957C113.613 28.0913 113.731 28.0422 113.837 27.9574C113.951 27.8681 114.051 27.7075 114.148 27.4754L119.311 13.1821H122.853Z" fill="#3835FF"/>
<path d="M153.797 13.1821V15.9801H150.738C149.971 15.9801 149.374 16.2077 148.945 16.6629C148.515 17.1046 148.301 17.7339 148.301 18.5371V29.6174C148.301 30.0681 148.121 30.4742 147.832 30.7687C147.538 31.0633 147.143 31.2462 146.701 31.2462C145.82 31.2462 145.101 30.5188 145.101 29.6174V18.3229C145.101 16.7164 145.548 15.4625 146.442 14.5476C147.332 13.6418 148.572 13.1821 150.15 13.1821H153.801H153.797Z" fill="#3835FF"/>
<path d="M187.573 15.9801V25.8957C187.573 26.6767 187.783 27.2925 188.213 27.7566C188.642 28.2162 189.238 28.4527 190.005 28.4527H192.214C192.591 28.4527 192.938 28.6089 193.183 28.8588C193.433 29.1132 193.586 29.4612 193.586 29.8495C193.586 30.6215 192.968 31.2418 192.214 31.2418H189.414C187.836 31.2418 186.604 30.7866 185.714 29.8629C184.816 28.9436 184.373 27.6941 184.373 26.1144V15.9756H181.314V13.1777H184.373V8.6438H187.573V13.1777H193.661V15.9756H187.573V15.9801Z" fill="#3835FF"/>
<path d="M220.998 15.9801V25.8957C220.998 26.6767 221.208 27.2925 221.638 27.7566C222.067 28.2162 222.663 28.4527 223.43 28.4527H225.64C226.016 28.4527 226.363 28.6089 226.608 28.8588C226.858 29.1132 227.011 29.4612 227.011 29.8495C227.011 30.6215 226.393 31.2418 225.64 31.2418H222.839C221.261 31.2418 220.029 30.7866 219.139 29.8629C218.241 28.9436 217.798 27.6941 217.798 26.1144V15.9756H214.739V13.1777H217.798V8.6438H220.998V13.1777H227.086V15.9756H220.998V15.9801Z" fill="#3835FF"/>
<path d="M290.916 15.9801V25.8957C290.916 26.6767 291.131 27.2925 291.561 27.7566C291.99 28.2162 292.586 28.4527 293.349 28.4527H295.562C295.939 28.4527 296.286 28.6089 296.531 28.8588C296.781 29.1132 296.934 29.4612 296.934 29.8495C296.934 30.6215 296.316 31.2418 295.562 31.2418H292.762C291.184 31.2418 289.948 30.7866 289.054 29.8629C288.164 28.9436 287.712 27.6941 287.712 26.1144V15.9756H284.653V13.1777H287.712V8.6438H290.912V13.1777H297V15.9756H290.912L290.916 15.9801Z" fill="#3835FF"/>
<path d="M170.878 25.7217C170.878 26.6945 170.641 27.6004 170.181 28.4349C169.716 29.2694 169.072 29.9566 168.252 30.4653C167.428 30.9874 166.468 31.2462 165.381 31.2462H157.886C157.505 31.2462 157.163 31.09 156.913 30.8401C156.668 30.5902 156.514 30.2377 156.514 29.8539C156.514 29.0775 157.128 28.4572 157.886 28.4572H165C165.552 28.4572 166.034 28.3367 166.442 28.0823C166.845 27.8369 167.156 27.5111 167.367 27.1095C167.573 26.7034 167.674 26.275 167.674 25.8288C167.674 25.4049 167.582 25.0166 167.398 24.6462C167.209 24.2848 166.924 23.9858 166.543 23.7582C166.162 23.5351 165.701 23.4235 165.171 23.4235H161.586C160.455 23.4235 159.46 23.2272 158.614 22.8389C157.772 22.4507 157.106 21.8706 156.633 21.1209C156.155 20.3667 155.918 19.4385 155.918 18.3541C155.918 17.4304 156.142 16.5825 156.58 15.8061C157.018 15.0251 157.636 14.3915 158.425 13.9051C159.21 13.4231 160.117 13.1777 161.139 13.1777H169.317V15.9756H161.454C160.564 15.9756 159.903 16.3237 159.473 17.0109C159.267 17.3456 159.14 17.7339 159.127 18.131C159.092 18.7692 159.306 19.318 159.767 19.7866C160.192 20.2284 160.801 20.4426 161.59 20.4426H165.004C166.275 20.4426 167.349 20.6479 168.217 21.0629C169.089 21.4779 169.751 22.0803 170.203 22.8523C170.654 23.6288 170.882 24.5838 170.882 25.7172L170.878 25.7217Z" fill="#3835FF"/>
<path d="M266.985 25.7217C266.985 26.6945 266.753 27.6004 266.288 28.4349C265.823 29.2694 265.179 29.9566 264.359 30.4653C263.535 30.9874 262.576 31.2462 261.489 31.2462H253.993C253.612 31.2462 253.27 31.09 253.02 30.8401C252.775 30.5902 252.622 30.2377 252.622 29.8539C252.622 29.0775 253.235 28.4572 253.993 28.4572H261.107C261.659 28.4572 262.142 28.3367 262.549 28.0823C262.957 27.8369 263.264 27.5111 263.474 27.1095C263.68 26.7034 263.785 26.275 263.785 25.8288C263.785 25.4049 263.689 25.0166 263.505 24.6462C263.316 24.2848 263.031 23.9858 262.65 23.7582C262.269 23.5351 261.813 23.4235 261.278 23.4235H257.697C256.562 23.4235 255.567 23.2272 254.717 22.8389C253.875 22.4507 253.213 21.8706 252.736 21.1209C252.258 20.3667 252.021 19.4385 252.021 18.3541C252.021 17.4304 252.245 16.5825 252.683 15.8061C253.126 15.0251 253.739 14.3915 254.528 13.9051C255.313 13.4231 256.22 13.1777 257.241 13.1777H265.455V15.9756H257.557C256.667 15.9756 256.005 16.3237 255.576 17.0109C255.37 17.3456 255.247 17.7339 255.23 18.131C255.194 18.7692 255.414 19.318 255.869 19.7866C256.299 20.2284 256.904 20.4426 257.697 20.4426H261.103C262.378 20.4426 263.452 20.6479 264.324 21.0629C265.192 21.4779 265.854 22.0803 266.305 22.8523C266.757 23.6288 266.985 24.5838 266.985 25.7172V25.7217Z" fill="#3835FF"/>
<path d="M26.7059 20.1391V27.2032C26.7059 27.9752 26.5306 28.6446 26.1887 29.2024C25.8469 29.7602 25.3823 30.1931 24.8037 30.4965C24.4268 30.6929 24.0191 30.8267 23.6071 30.8981V26.6008C23.6071 26.3018 23.5019 26.0385 23.2915 25.8332C23.0943 25.6458 22.8269 25.5343 22.5201 25.5253C22.2396 25.5253 21.9854 25.628 21.7794 25.8243C21.5383 26.043 21.3981 26.3509 21.3981 26.6633V30.9472H18.1765V26.5919C18.1765 26.2973 18.0626 26.034 17.8478 25.8288C17.6549 25.6414 17.392 25.5298 17.0851 25.5164C16.809 25.5164 16.5504 25.619 16.3356 25.8154C16.1033 26.0385 15.9675 26.342 15.9675 26.6543V30.8937C15.5379 30.8223 15.1391 30.6884 14.7753 30.4965C14.1967 30.1931 13.7321 29.7602 13.3902 29.2024C13.044 28.6401 12.8687 27.9708 12.8687 27.2032V20.1257L19.2679 22.5444C19.4388 22.6069 19.5966 22.6381 19.7632 22.6381C19.7807 22.6381 19.7983 22.6381 19.8158 22.6336H19.8552C20.0218 22.6336 20.184 22.6024 20.3593 22.5444L26.7059 20.1391Z" fill="#3835FF"/>
<path d="M32.3206 14.5923C32.3206 14.744 32.268 14.8868 32.1628 15.0207C32.0532 15.1724 31.8429 15.2751 31.6851 15.3375L19.7281 19.7018L19.6843 19.684L7.91139 15.3643C7.67032 15.2706 7.50815 15.168 7.41172 15.0475C7.31529 14.9448 7.2627 14.7931 7.2627 14.6101C7.2627 14.454 7.30653 14.3201 7.40734 14.1862C7.51691 14.0613 7.67909 13.9497 7.89386 13.8649L19.8596 9.50061L19.9078 9.514L31.6631 13.8381C31.9174 13.9452 32.0795 14.0434 32.1716 14.155C32.268 14.271 32.3206 14.4227 32.3206 14.5923Z" fill="#3835FF"/>
<path d="M0 0V24.8694C0 28.6892 0.841546 32.0316 2.52464 34.8965C4.20773 37.7615 6.55266 39.9972 9.55944 41.5992C12.5706 43.2012 15.9762 44 19.7851 44C23.594 44 26.9908 43.2012 29.9669 41.5992C32.9474 39.9972 35.2923 37.7615 37.0061 34.8965C38.7111 32.0316 39.5702 28.6892 39.5702 24.8694V0H0ZM34.442 16.5826C34.03 17.1716 33.4427 17.6045 32.6976 17.8722L29.3226 19.1485V27.2211C29.3226 28.3992 29.0509 29.4389 28.503 30.3181C27.9726 31.1927 27.2056 31.8888 26.2282 32.3886C25.4524 32.7858 24.5714 33.0223 23.6071 33.0982V34.5217C23.6071 35.1063 23.1162 35.5838 22.507 35.5838C22.2177 35.5838 21.9416 35.4767 21.7356 35.2759C21.5208 35.0617 21.3981 34.7939 21.3981 34.5217V33.1294H18.1765V34.5083C18.1765 35.0974 17.6812 35.5748 17.0676 35.5748C16.7827 35.5748 16.5066 35.4677 16.3006 35.2669C16.0814 35.0572 15.9675 34.785 15.9675 34.5083V33.0982C15.0076 33.0223 14.1266 32.7858 13.3464 32.3886C12.369 31.8844 11.6019 31.1882 11.076 30.3136C10.5237 29.4345 10.252 28.3947 10.252 27.2211V19.1351L6.88139 17.8588C6.13627 17.5688 5.54894 17.1314 5.13694 16.5558C4.72931 15.9846 4.52331 15.3197 4.52331 14.5834C4.52331 13.8471 4.72931 13.2045 5.13255 12.6199C5.54894 12.0398 6.13189 11.6069 6.87263 11.3347L19.2241 6.65801C19.3731 6.6 19.5353 6.57323 19.7106 6.57323C19.75 6.57323 19.7895 6.57323 19.8289 6.57769C20.0086 6.57769 20.1664 6.60446 20.3111 6.66247L32.6976 11.3347C33.4471 11.6292 34.0344 12.071 34.442 12.6511C34.8453 13.2134 35.0513 13.8783 35.0513 14.6235C35.0513 15.3688 34.8453 16.0114 34.442 16.5826Z" fill="#3835FF"/>
</g>
<defs>
<clipPath id="clip0_328_11321">
<rect width="297" height="44" fill="white"/>
</clipPath>
</defs>
</svg>
