<svg width="61" height="67" viewBox="0 0 61 67" fill="none" xmlns="http://www.w3.org/2000/svg">
<g clip-path="url(#clip0_122_23009)">
<path d="M61 0V37.8731C61 43.6903 59.6824 48.7804 57.0473 53.1433C54.4054 57.5062 50.7905 60.9109 46.1959 63.3506C41.6081 65.7903 36.3716 67.0068 30.5 67.0068C24.6284 67.0068 19.3716 65.7903 14.7365 63.3506C10.1014 60.9109 6.48649 57.5062 3.89189 53.1433C1.2973 48.7804 0 43.6903 0 37.8731V0H61Z" fill="#3835FF"/>
<path d="M52.0676 21.6583C52.0676 22.5213 51.8243 23.3097 51.3311 23.996C50.8378 24.696 50.1351 25.2125 49.2365 25.5319L34.8851 30.8938C34.6757 30.9685 34.4662 31.0093 34.25 31.0093C33.8919 31.0093 33.5405 30.9006 33.2297 30.6831C32.7365 30.3433 32.4527 29.7997 32.4527 29.1948C32.4527 28.8143 32.5676 28.4541 32.7838 28.1551C33.0068 27.8357 33.2973 27.6182 33.6486 27.4891L47.9459 22.3311C48.1892 22.2359 48.3581 22.1272 48.4392 22.0184C48.5405 21.8893 48.5878 21.7602 48.5878 21.6243C48.5878 21.4544 48.5405 21.3185 48.4527 21.2165C48.3581 21.1078 48.1892 21.0059 47.9257 20.8971L33.6216 15.7051C32.9257 15.4537 32.4527 14.7809 32.4527 14.0334C32.4527 13.0548 33.25 12.2596 34.2162 12.2596C34.4392 12.2596 34.6486 12.2936 34.8378 12.3684L49.2365 17.7371C50.1419 18.0905 50.8446 18.6205 51.3311 19.3001C51.8243 19.9797 52.0676 20.7748 52.0676 21.6583Z" fill="white"/>
<path d="M28.5473 29.1473C28.5473 30.1327 27.7568 30.9346 26.777 30.9346C26.5811 30.9346 26.3784 30.8938 26.1689 30.819L11.7703 25.4367C10.8716 25.0902 10.1689 24.5669 9.67568 23.8873C9.18243 23.2077 8.93243 22.4126 8.93243 21.5292C8.93243 20.6457 9.18243 19.8846 9.66892 19.1846C10.1622 18.4982 10.8649 17.9817 11.7635 17.6555L26.1216 12.2868C26.6486 12.0898 27.2973 12.1577 27.777 12.5043C28.2635 12.8441 28.5473 13.3878 28.5473 13.9926C28.5473 14.3664 28.4324 14.7265 28.223 15.0323C28.0068 15.3382 27.7095 15.5692 27.3581 15.6983L13.0608 20.8496C12.8243 20.9447 12.6554 21.0534 12.5608 21.169C12.4662 21.2913 12.4189 21.4136 12.4189 21.5631C12.4189 21.733 12.4662 21.8689 12.5608 21.9709C12.6554 22.0864 12.8311 22.1883 13.0743 22.2835L27.3851 27.4755C28.0811 27.7269 28.5473 28.3997 28.5473 29.1473Z" fill="white"/>
<path d="M43.723 33.3946V42.6573C43.723 44.3699 43.3379 45.8853 42.5676 47.1629C41.8243 48.4338 40.75 49.4463 39.3784 50.1735C38.2906 50.7511 37.0541 51.0977 35.7027 51.2065V53.2724C35.7027 54.1287 35.0135 54.8218 34.1554 54.8218C33.75 54.8218 33.3649 54.6655 33.0743 54.3733C32.7703 54.0607 32.6014 53.6733 32.6014 53.2724V51.2472H28.0811V53.2588C28.0811 54.1151 27.3851 54.8082 26.527 54.8082C26.1216 54.8082 25.7365 54.6519 25.446 54.3597C25.1419 54.0539 24.9797 53.6597 24.9797 53.2588V51.2065C23.6351 51.0977 22.3987 50.7511 21.3041 50.1735C19.9324 49.4395 18.8581 48.427 18.1149 47.1561C17.3446 45.8785 16.9595 44.3631 16.9595 42.6573V33.3946C16.9595 32.3752 17.7838 31.5461 18.8041 31.5461C19.2906 31.5461 19.75 31.7364 20.1014 32.083C20.446 32.4296 20.6351 32.8985 20.6351 33.3946V42.6301C20.6351 43.7446 20.8784 44.7232 21.3649 45.5387C21.8446 46.3474 22.4933 46.9795 23.3108 47.4212C23.8176 47.6998 24.3784 47.8969 24.9797 47.9988V41.835C24.9797 41.3797 25.1689 40.938 25.5 40.6118C25.7973 40.3263 26.1622 40.1768 26.5473 40.1768C26.9797 40.1972 27.3514 40.3603 27.6216 40.6322C27.9189 40.9312 28.0811 41.3117 28.0811 41.7399V48.0736H32.6014V41.8486C32.6014 41.3933 32.7973 40.9448 33.1352 40.6254C33.4257 40.3399 33.7838 40.1904 34.1757 40.1904C34.6081 40.204 34.9797 40.3671 35.2568 40.639C35.5541 40.938 35.7027 41.3185 35.7027 41.7535V48.0056C36.277 47.9037 36.8514 47.7066 37.3784 47.4212C38.1892 46.9795 38.8446 46.3474 39.3243 45.5387C39.8041 44.73 40.0473 43.7514 40.0473 42.6301V33.3946C40.0473 32.9053 40.2365 32.4364 40.5811 32.0898C40.9392 31.7364 41.3987 31.5461 41.8852 31.5461C42.8987 31.5461 43.723 32.3752 43.723 33.3946Z" fill="white"/>
</g>
<defs>
<clipPath id="clip0_122_23009">
<rect width="61" height="67" fill="white"/>
</clipPath>
</defs>
</svg>
